<svg width="1600" height="900" viewBox="0 0 1600 900" fill="none" xmlns="http://www.w3.org/2000/svg">
  <rect width="1600" height="900" fill="#020817"/>
  <defs>
    <radialGradient id="g1" cx="0" cy="0" r="1" gradientUnits="userSpaceOnUse" gradientTransform="translate(220 40) rotate(35) scale(520 320)">
      <stop stop-color="#0EA5E9" stop-opacity="0.22"/>
      <stop offset="1" stop-color="#0EA5E9" stop-opacity="0"/>
    </radialGradient>
    <radialGradient id="g2" cx="0" cy="0" r="1" gradientUnits="userSpaceOnUse" gradientTransform="translate(1370 120) rotate(140) scale(420 280)">
      <stop stop-color="#8B5CF6" stop-opacity="0.18"/>
      <stop offset="1" stop-color="#8B5CF6" stop-opacity="0"/>
    </radialGradient>
    <linearGradient id="line" x1="0" y1="0" x2="1" y2="1">
      <stop stop-color="#2563EB"/>
      <stop offset="1" stop-color="#38BDF8"/>
    </linearGradient>
  </defs>
  <rect width="1600" height="900" fill="url(#g1)"/>
  <rect width="1600" height="900" fill="url(#g2)"/>

  <rect x="92" y="74" width="1416" height="74" rx="20" fill="#081120" stroke="#1E293B"/>
  <text x="126" y="118" fill="#E2E8F0" font-size="30" font-family="Arial, sans-serif" font-weight="700">smartclash-gen v0.12.0</text>
  <text x="126" y="140" fill="#94A3B8" font-size="15" font-family="Arial, sans-serif">单页流程 · 极简编排 · 动画过渡 · YAML 即时交付</text>

  <rect x="92" y="176" width="420" height="92" rx="24" fill="#081120" stroke="#1E293B"/>
  <text x="126" y="214" fill="#E2E8F0" font-size="24" font-family="Arial, sans-serif" font-weight="700">配置生成流程</text>
  <text x="126" y="240" fill="#94A3B8" font-size="15" font-family="Arial, sans-serif">路径：节点模块 / 导入 / 快速导入</text>

  <rect x="540" y="176" width="968" height="92" rx="24" fill="#081120" stroke="#1E293B"/>
  <rect x="572" y="202" width="280" height="40" rx="14" fill="url(#line)"/>
  <rect x="884" y="202" width="280" height="40" rx="14" fill="#0F172A" stroke="#334155"/>
  <rect x="1196" y="202" width="280" height="40" rx="14" fill="#0F172A" stroke="#334155"/>
  <text x="701" y="227" text-anchor="middle" fill="white" font-size="16" font-family="Arial, sans-serif" font-weight="700">① 导入</text>
  <text x="1024" y="227" text-anchor="middle" fill="#CBD5E1" font-size="16" font-family="Arial, sans-serif" font-weight="700">② 编排</text>
  <text x="1336" y="227" text-anchor="middle" fill="#CBD5E1" font-size="16" font-family="Arial, sans-serif" font-weight="700">③ 发布</text>
  <rect x="572" y="252" width="904" height="8" rx="4" fill="#0F172A"/>
  <rect x="572" y="252" width="301" height="8" rx="4" fill="url(#line)"/>

  <rect x="92" y="294" width="1416" height="520" rx="28" fill="#081120" stroke="#1E293B"/>
  <text x="126" y="344" fill="#E2E8F0" font-size="28" font-family="Arial, sans-serif" font-weight="700">步骤 1：导入订阅 / 节点</text>
  <text x="126" y="372" fill="#94A3B8" font-size="16" font-family="Arial, sans-serif">把机场订阅或节点 URL 丢进来，系统会自动帮你进入下一步。</text>

  <rect x="126" y="410" width="420" height="246" rx="22" fill="#0B1224" stroke="#334155"/>
  <text x="154" y="446" fill="#CBD5E1" font-size="18" font-family="Arial, sans-serif" font-weight="700">机场订阅</text>
  <rect x="154" y="472" width="364" height="102" rx="16" fill="#020817" stroke="#334155"/>
  <text x="174" y="505" fill="#64748B" font-size="14" font-family="Arial, sans-serif">机场订阅链接（每行一个 https://...）</text>
  <rect x="154" y="594" width="206" height="40" rx="14" fill="#0F172A" stroke="#334155"/>
  <text x="257" y="619" text-anchor="middle" fill="#CBD5E1" font-size="14" font-family="Arial, sans-serif" font-weight="700">拉取订阅并填充节点</text>
  <text x="384" y="619" fill="#94A3B8" font-size="14" font-family="Arial, sans-serif">未拉取订阅</text>

  <rect x="574" y="410" width="900" height="246" rx="22" fill="#0B1224" stroke="#334155"/>
  <text x="602" y="446" fill="#CBD5E1" font-size="18" font-family="Arial, sans-serif" font-weight="700">节点 URL</text>
  <rect x="602" y="472" width="844" height="128" rx="16" fill="#020817" stroke="#334155"/>
  <text x="622" y="505" fill="#64748B" font-size="14" font-family="Arial, sans-serif">粘贴节点 URL（每行一条，支持 vless/vmess/trojan/ss）</text>
  <rect x="602" y="620" width="160" height="40" rx="14" fill="url(#line)"/>
  <rect x="778" y="620" width="160" height="40" rx="14" fill="#0F172A" stroke="#334155"/>
  <rect x="954" y="620" width="144" height="40" rx="14" fill="#0F172A" stroke="#334155"/>
  <text x="682" y="645" text-anchor="middle" fill="white" font-size="14" font-family="Arial, sans-serif" font-weight="700">导入全部节点</text>
  <text x="858" y="645" text-anchor="middle" fill="#CBD5E1" font-size="14" font-family="Arial, sans-serif" font-weight="700">自动处理重复</text>
  <text x="1026" y="645" text-anchor="middle" fill="#CBD5E1" font-size="14" font-family="Arial, sans-serif" font-weight="700">清空输入</text>
  <text x="1118" y="645" fill="#94A3B8" font-size="14" font-family="Arial, sans-serif">未导入</text>

  <line x1="126" y1="720" x2="1474" y2="720" stroke="#334155" stroke-dasharray="6 6"/>
  <text x="126" y="760" fill="#94A3B8" font-size="15" font-family="Arial, sans-serif">导入成功后将自动切换到步骤 2</text>
  <rect x="1290" y="736" width="156" height="44" rx="16" fill="url(#line)"/>
  <text x="1368" y="763" text-anchor="middle" fill="white" font-size="16" font-family="Arial, sans-serif" font-weight="700">下一步</text>
</svg>
