<svg width="1600" height="900" viewBox="0 0 1600 900" fill="none" xmlns="http://www.w3.org/2000/svg">
  <rect width="1600" height="900" fill="#030712"/>
  <circle cx="260" cy="160" r="220" fill="#0EA5E9" opacity=".10"/>
  <circle cx="1340" cy="720" r="260" fill="#8B5CF6" opacity=".08"/>
  <rect x="180" y="72" width="1240" height="756" rx="34" fill="#0B1220" fill-opacity="0.64" stroke="#FFFFFF" stroke-opacity="0.12"/>
  <text x="226" y="124" fill="#E2E8F0" font-size="30" font-family="Arial" font-weight="700">smartclash-gen v0.12.4</text>
  <text x="226" y="150" fill="#94A3B8" font-size="15" font-family="Arial">发布页收口：Hero 指标卡 + 代码区层级优化</text>
  <rect x="214" y="188" width="1172" height="174" rx="26" fill="#0F172A" fill-opacity="0.52" stroke="#FFFFFF" stroke-opacity="0.08"/>
  <text x="246" y="236" fill="#E2E8F0" font-size="28" font-family="Arial" font-weight="700">步骤 3：生成并发布</text>
  <text x="246" y="264" fill="#94A3B8" font-size="16" font-family="Arial">把校验、发布状态和导出预览拉开层级，让它更像成品面板。</text>
  <rect x="246" y="286" width="214" height="56" rx="18" fill="#082F49" stroke="#38BDF8"/>
  <rect x="474" y="286" width="146" height="56" rx="18" fill="#111827" stroke="#334155"/>
  <rect x="634" y="286" width="146" height="56" rx="18" fill="#111827" stroke="#334155"/>
  <rect x="794" y="286" width="250" height="56" rx="18" fill="#111827" stroke="#334155"/>
  <text x="264" y="308" fill="#94A3B8" font-size="12" font-family="Arial">发布状态</text><text x="264" y="330" fill="#F8FAFC" font-size="22" font-family="Arial" font-weight="700">可以进入发布</text>
  <text x="492" y="308" fill="#94A3B8" font-size="12" font-family="Arial">阻塞项</text><text x="492" y="330" fill="#F8FAFC" font-size="22" font-family="Arial" font-weight="700">0</text>
  <text x="652" y="308" fill="#94A3B8" font-size="12" font-family="Arial">警告项</text><text x="652" y="330" fill="#F8FAFC" font-size="22" font-family="Arial" font-weight="700">2</text>
  <text x="812" y="308" fill="#94A3B8" font-size="12" font-family="Arial">输出格式</text><text x="812" y="330" fill="#F8FAFC" font-size="22" font-family="Arial" font-weight="700">YAML + MD</text>
  <rect x="1116" y="286" width="238" height="56" rx="18" fill="#111827" stroke="#334155"/>
  <text x="1138" y="309" fill="#94A3B8" font-size="12" font-family="Arial">控制区</text><text x="1138" y="331" fill="#F8FAFC" font-size="18" font-family="Arial" font-weight="700">端口 / 自动推进 / 高级</text>

  <rect x="214" y="384" width="446" height="378" rx="26" fill="#0F172A" fill-opacity="0.5" stroke="#FFFFFF" stroke-opacity="0.08"/>
  <rect x="680" y="384" width="706" height="378" rx="26" fill="#0F172A" fill-opacity="0.5" stroke="#FFFFFF" stroke-opacity="0.08"/>
  <text x="244" y="426" fill="#CBD5E1" font-size="20" font-family="Arial" font-weight="700">发布前检查</text>
  <rect x="244" y="448" width="126" height="64" rx="16" fill="#111827" stroke="#334155"/>
  <rect x="384" y="448" width="126" height="64" rx="16" fill="#111827" stroke="#334155"/>
  <rect x="524" y="448" width="106" height="64" rx="16" fill="#111827" stroke="#334155"/>
  <text x="260" y="473" fill="#93C5FD" font-size="12" font-family="Arial">规则</text><text x="260" y="496" fill="#F8FAFC" font-size="16" font-family="Arial">规则无阻塞</text>
  <text x="400" y="473" fill="#93C5FD" font-size="12" font-family="Arial">节点</text><text x="400" y="496" fill="#F8FAFC" font-size="16" font-family="Arial">已分配</text>
  <text x="540" y="473" fill="#93C5FD" font-size="12" font-family="Arial">端口</text><text x="540" y="496" fill="#F8FAFC" font-size="16" font-family="Arial">7892</text>
  <text x="244" y="548" fill="#94A3B8" font-size="14" font-family="Arial">• 无阻塞项，可发布</text>
  <text x="244" y="580" fill="#94A3B8" font-size="14" font-family="Arial">• 2 条提醒可按需处理</text>
  <text x="244" y="612" fill="#94A3B8" font-size="14" font-family="Arial">• 输出将同步生成 Markdown 与 YAML</text>
  <text x="244" y="666" fill="#CBD5E1" font-size="20" font-family="Arial" font-weight="700">与上次保存相比</text>
  <text x="244" y="702" fill="#94A3B8" font-size="14" font-family="Arial">• 规则结构无阻塞</text>
  <text x="244" y="734" fill="#94A3B8" font-size="14" font-family="Arial">• YAML 预览已刷新</text>

  <text x="710" y="426" fill="#CBD5E1" font-size="20" font-family="Arial" font-weight="700">YAML / Markdown 预览</text>
  <text x="1160" y="426" fill="#94A3B8" font-size="14" font-family="Arial">当前版本：v0.12.4</text>
  <rect x="710" y="450" width="646" height="278" rx="18" fill="#020617" stroke="#334155"/>
  <text x="734" y="484" fill="#93C5FD" font-size="14" font-family="monospace"># smartclash-gen 可编辑配置</text>
  <text x="734" y="518" fill="#CBD5E1" font-size="13" font-family="monospace">mixed-port: 7892</text>
  <text x="734" y="544" fill="#CBD5E1" font-size="13" font-family="monospace">proxy-groups:</text>
  <text x="734" y="570" fill="#CBD5E1" font-size="13" font-family="monospace">  - name: Smart-AUTO</text>
  <text x="734" y="596" fill="#CBD5E1" font-size="13" font-family="monospace">  - name: Smart-Transit</text>
  <text x="734" y="622" fill="#CBD5E1" font-size="13" font-family="monospace">rules:</text>
  <text x="734" y="648" fill="#CBD5E1" font-size="13" font-family="monospace">  - RULE-SET,openai,Smart-AUTO</text>
  <text x="734" y="674" fill="#CBD5E1" font-size="13" font-family="monospace">  - MATCH,Smart-AUTO</text>
</svg>
